<svg width="952" height="804" viewBox="0 0 952 804" fill="none" xmlns="http://www.w3.org/2000/svg">
<rect y="41" width="146" height="694" fill="#8A2140"/>
<path d="M86.2812 500.766C84.9687 500.766 83.7969 500.969 82.7656 501.375C81.7031 501.75 80.75 502.453 79.9062 503.484C79.0312 504.484 78.1875 505.906 77.375 507.75C76.5312 509.562 75.6562 511.906 74.75 514.781C73.75 517.969 72.625 520.937 71.375 523.687C70.125 526.437 68.6719 528.859 67.0156 530.953C65.3594 533.016 63.4531 534.625 61.2969 535.781C59.1094 536.937 56.5781 537.516 53.7031 537.516C50.8906 537.516 48.3281 536.922 46.0156 535.734C43.7031 534.516 41.7187 532.797 40.0625 530.578C38.375 528.359 37.0781 525.75 36.1719 522.75C35.2656 519.719 34.8125 516.375 34.8125 512.719C34.8125 507.656 35.7344 503.281 37.5781 499.594C39.4219 495.875 41.9219 493 45.0781 490.969C48.2344 488.937 51.7812 487.922 55.7187 487.922L55.7187 500.766C53.5937 500.766 51.7187 501.219 50.0937 502.125C48.4687 503 47.1875 504.344 46.25 506.156C45.3125 507.937 44.8437 510.187 44.8437 512.906C44.8437 515.531 45.2344 517.719 46.0156 519.469C46.7969 521.187 47.8594 522.484 49.2031 523.359C50.5469 524.203 52.0469 524.625 53.7031 524.625C54.9531 524.625 56.0781 524.328 57.0781 523.734C58.0469 523.141 58.9687 522.25 59.8437 521.062C60.6875 519.875 61.4844 518.406 62.2344 516.656C62.9531 514.875 63.6719 512.812 64.3906 510.469C65.5156 506.719 66.7656 503.437 68.1406 500.625C69.5156 497.781 71.0781 495.422 72.8281 493.547C74.5781 491.641 76.5469 490.219 78.7344 489.281C80.9219 488.312 83.4062 487.828 86.1875 487.828C89.125 487.828 91.75 488.406 94.0625 489.562C96.375 490.719 98.3437 492.375 99.9687 494.531C101.594 496.687 102.828 499.281 103.672 502.312C104.516 505.312 104.937 508.672 104.937 512.391C104.937 515.703 104.5 518.984 103.625 522.234C102.719 525.453 101.375 528.375 99.5937 531C97.7812 533.625 95.5 535.719 92.75 537.281C89.9687 538.844 86.7187 539.625 83 539.625L83 526.687C85.1562 526.687 87 526.344 88.5312 525.656C90.0312 524.937 91.2656 523.937 92.2344 522.656C93.1719 521.344 93.8594 519.812 94.2969 518.062C94.7344 516.312 94.9531 514.422 94.9531 512.391C94.9531 509.766 94.5937 507.609 93.875 505.922C93.125 504.203 92.0937 502.922 90.7812 502.078C89.4687 501.203 87.9687 500.766 86.2812 500.766ZM93.875 432.656L104 432.656L104 468.937L93.875 468.937L93.875 432.656ZM35.75 465L104 465L104 477.891L35.75 477.891L35.75 465ZM63.9219 437.391L73.8125 437.391L73.8125 468.937L63.9219 468.937L63.9219 437.391ZM35.75 432.797L45.9219 432.797L45.9219 468.937L35.75 468.937L35.75 432.797ZM46.1094 396.562L104 416.016L104 429.656L35.75 404.156L35.75 395.437L46.1094 396.562ZM104 380.297L46.1094 399.844L35.75 401.016L35.75 392.25L104 366.609L104 380.297ZM78.6406 381.187L88.8125 381.187L88.8125 417.797L78.6406 417.797L78.6406 381.187ZM35.75 359.578L35.75 334.781C35.75 329.594 36.5312 325.141 38.0937 321.422C39.6562 317.703 41.9687 314.844 45.0312 312.844C48.0937 310.844 51.8594 309.844 56.3281 309.844C59.8594 309.844 62.9219 310.469 65.5156 311.719C68.1094 312.969 70.2812 314.734 72.0312 317.016C73.7812 319.266 75.1562 321.922 76.1562 324.984L78.2187 329.016L78.2187 350.906L68.0469 351L68.0469 334.641C68.0469 331.984 67.5781 329.781 66.6406 328.031C65.7031 326.281 64.4062 324.969 62.75 324.094C61.0937 323.187 59.2031 322.734 57.0781 322.734C54.7969 322.734 52.8281 323.172 51.1719 324.047C49.4844 324.922 48.1875 326.25 47.2812 328.031C46.375 329.812 45.9219 332.062 45.9219 334.781L45.9219 346.687L104 346.687L104 359.578L35.75 359.578ZM104 321.047L73.4375 336.844L73.3906 323.203L103.344 307.219L104 307.219L104 321.047ZM81.5469 258.609L81.5469 245.719C86.1094 246.062 90.1562 247.328 93.6875 249.516C97.1875 251.703 99.9375 254.75 101.937 258.656C103.937 262.562 104.937 267.297 104.937 272.859C104.937 277.141 104.187 281 102.687 284.437C101.156 287.844 98.9844 290.766 96.1719 293.203C93.3281 295.609 89.9219 297.453 85.9531 298.734C81.9531 300.016 77.4687 300.656 72.5 300.656L67.2969 300.656C62.3281 300.656 57.8437 300 53.8437 298.687C49.8437 297.375 46.4375 295.5 43.625 293.062C40.7812 290.594 38.5937 287.641 37.0625 284.203C35.5312 280.734 34.7656 276.859 34.7656 272.578C34.7656 267.016 35.7969 262.312 37.8594 258.469C39.8906 254.625 42.6875 251.641 46.25 249.516C49.8125 247.391 53.9062 246.109 58.5312 245.672L58.5312 258.562C55.6562 258.812 53.2187 259.437 51.2187 260.437C49.2187 261.406 47.7031 262.875 46.6719 264.844C45.6094 266.781 45.0781 269.359 45.0781 272.578C45.0781 275.078 45.5469 277.281 46.4844 279.187C47.4219 281.062 48.8281 282.625 50.7031 283.875C52.5469 285.125 54.8594 286.062 57.6406 286.687C60.3906 287.312 63.5781 287.625 67.2031 287.625L72.5 287.625C75.9687 287.625 79.0781 287.344 81.8281 286.781C84.5781 286.219 86.9062 285.344 88.8125 284.156C90.7187 282.969 92.1719 281.437 93.1719 279.562C94.1719 277.687 94.6719 275.453 94.6719 272.859C94.6719 269.703 94.1719 267.141 93.1719 265.172C92.1719 263.172 90.7031 261.656 88.7656 260.625C86.8281 259.562 84.4219 258.891 81.5469 258.609ZM63.9219 190.453L74.0469 190.453L74.0469 226.359L63.9219 226.359L63.9219 190.453ZM35.75 222.844L104 222.844L104 235.734L35.75 235.734L35.75 222.844ZM35.75 180.891L104 180.891L104 193.781L35.75 193.781L35.75 180.891Z" fill="white"/>
<rect x="161" width="146" height="694" fill="#8A2140"/>
<rect x="322" y="76" width="147" height="693" fill="#8A2140"/>
<rect x="483" y="41" width="147" height="694" fill="#8A2140"/>
<rect x="645" y="110" width="146" height="694" fill="#8A2140"/>
<rect x="806" y="76" width="146" height="693" fill="#8A2140"/>
<path d="M254.875 469.172L265 469.172L265 503.484L254.875 503.484L254.875 469.172ZM196.75 499.594L265 499.594L265 512.484L196.75 512.484L196.75 499.594ZM254.875 415.312L265 415.312L265 451.594L254.875 451.594L254.875 415.312ZM196.75 447.656L265 447.656L265 460.547L196.75 460.547L196.75 447.656ZM224.922 420.047L234.812 420.047L234.812 451.594L224.922 451.594L224.922 420.047ZM196.75 415.453L206.922 415.453L206.922 451.594L196.75 451.594L196.75 415.453ZM207.109 379.219L265 398.672L265 412.312L196.75 386.812L196.75 378.094L207.109 379.219ZM265 362.953L207.109 382.5L196.75 383.672L196.75 374.906L265 349.266L265 362.953ZM239.641 363.844L249.812 363.844L249.812 400.453L239.641 400.453L239.641 363.844ZM196.75 342.234L196.75 317.437C196.75 312.25 197.531 307.797 199.094 304.078C200.656 300.359 202.969 297.5 206.031 295.5C209.094 293.5 212.859 292.5 217.328 292.5C220.859 292.5 223.922 293.125 226.516 294.375C229.109 295.625 231.281 297.391 233.031 299.672C234.781 301.922 236.156 304.578 237.156 307.641L239.219 311.672L239.219 333.562L229.047 333.656L229.047 317.297C229.047 314.641 228.578 312.437 227.641 310.687C226.703 308.937 225.406 307.625 223.75 306.75C222.094 305.844 220.203 305.391 218.078 305.391C215.797 305.391 213.828 305.828 212.172 306.703C210.484 307.578 209.187 308.906 208.281 310.687C207.375 312.469 206.922 314.719 206.922 317.437L206.922 329.344L265 329.344L265 342.234L196.75 342.234ZM265 303.703L234.437 319.5L234.391 305.859L264.344 289.875L265 289.875L265 303.703ZM196.75 226.359L265 226.359L265 239.297L217.656 268.312L265 268.312L265 281.203L196.75 281.203L196.75 268.312L244.141 239.203L196.75 239.203L196.75 226.359Z" fill="white"/>
<path d="M357.75 556.75L426 556.75L426 569.641L357.75 569.641L357.75 556.75ZM357.75 537.203L357.75 526.047L409.125 507.391L357.75 488.781L357.75 477.578L426 502.937L426 511.891L357.75 537.203ZM357.75 542.828L357.75 531.906L404.953 529.937L426 529.937L426 542.828L357.75 542.828ZM357.75 482.922L357.75 471.953L426 471.953L426 484.844L404.953 484.844L357.75 482.922ZM401.109 432.578L401.109 450.156L390.984 450.156L390.984 432.578C390.984 429.703 390.516 427.375 389.578 425.594C388.609 423.781 387.297 422.453 385.641 421.609C383.953 420.766 382.031 420.344 379.875 420.344C377.781 420.344 375.828 420.766 374.016 421.609C372.203 422.453 370.734 423.781 369.609 425.594C368.484 427.375 367.922 429.703 367.922 432.578L367.922 445.937L426 445.937L426 458.828L357.75 458.828L357.75 432.578C357.75 427.266 358.703 422.734 360.609 418.984C362.484 415.203 365.094 412.328 368.437 410.359C371.75 408.359 375.531 407.359 379.781 407.359C384.187 407.359 387.984 408.359 391.172 410.359C394.359 412.328 396.812 415.203 398.531 418.984C400.25 422.734 401.109 427.266 401.109 432.578ZM357.75 397.234L357.75 372.437C357.75 367.25 358.531 362.797 360.094 359.078C361.656 355.359 363.969 352.5 367.031 350.5C370.094 348.5 373.859 347.5 378.328 347.5C381.859 347.5 384.922 348.125 387.516 349.375C390.109 350.625 392.281 352.391 394.031 354.672C395.781 356.922 397.156 359.578 398.156 362.641L400.219 366.672L400.219 388.562L390.047 388.656L390.047 372.297C390.047 369.641 389.578 367.437 388.641 365.687C387.703 363.937 386.406 362.625 384.75 361.75C383.094 360.844 381.203 360.391 379.078 360.391C376.797 360.391 374.828 360.828 373.172 361.703C371.484 362.578 370.187 363.906 369.281 365.687C368.375 367.469 367.922 369.719 367.922 372.437L367.922 384.344L426 384.344L426 397.234L357.75 397.234ZM426 358.703L395.437 374.5L395.391 360.859L425.344 344.875L426 344.875L426 358.703ZM390.141 280.937L393.656 280.937C398.812 280.937 403.453 281.625 407.578 283C411.672 284.375 415.156 286.328 418.031 288.859C420.906 291.391 423.109 294.406 424.641 297.906C426.172 301.406 426.937 305.297 426.937 309.578C426.937 313.797 426.172 317.672 424.641 321.203C423.109 324.703 420.906 327.734 418.031 330.297C415.156 332.859 411.672 334.844 407.578 336.25C403.453 337.656 398.812 338.359 393.656 338.359L390.141 338.359C384.953 338.359 380.312 337.656 376.219 336.25C372.125 334.844 368.641 332.875 365.766 330.344C362.859 327.812 360.641 324.797 359.109 321.297C357.578 317.766 356.812 313.891 356.812 309.672C356.812 305.391 357.578 301.5 359.109 298C360.641 294.5 362.859 291.484 365.766 288.953C368.641 286.391 372.125 284.422 376.219 283.047C380.312 281.641 384.953 280.937 390.141 280.937ZM393.656 293.969L390.047 293.969C386.328 293.969 383.062 294.312 380.25 295C377.406 295.687 375.016 296.703 373.078 298.047C371.141 299.391 369.687 301.047 368.719 303.016C367.719 304.984 367.219 307.203 367.219 309.672C367.219 312.172 367.719 314.391 368.719 316.328C369.687 318.234 371.141 319.859 373.078 321.203C375.016 322.547 377.406 323.578 380.25 324.297C383.062 324.984 386.328 325.328 390.047 325.328L393.656 325.328C397.344 325.328 400.609 324.984 403.453 324.297C406.297 323.578 408.703 322.547 410.672 321.203C412.609 319.828 414.078 318.172 415.078 316.234C416.078 314.297 416.578 312.078 416.578 309.578C416.578 307.078 416.078 304.859 415.078 302.922C414.078 300.984 412.609 299.359 410.672 298.047C408.703 296.703 406.297 295.687 403.453 295C400.609 294.312 397.344 293.969 393.656 293.969ZM412.641 247.047L357.75 230.031L357.75 215.734L426 239.828L426 249.344L412.641 247.047ZM357.75 262.75L412.641 245.828L426 243.391L426 253L357.75 277L357.75 262.75ZM415.875 163.469L426 163.469L426 199.75L415.875 199.75L415.875 163.469ZM357.75 195.812L426 195.812L426 208.703L357.75 208.703L357.75 195.812ZM385.922 168.203L395.812 168.203L395.812 199.75L385.922 199.75L385.922 168.203ZM357.75 163.609L367.922 163.609L367.922 199.75L357.75 199.75L357.75 163.609Z" fill="white"/>
<path d="M570.281 500.766C568.969 500.766 567.797 500.969 566.766 501.375C565.703 501.75 564.75 502.453 563.906 503.484C563.031 504.484 562.187 505.906 561.375 507.75C560.531 509.562 559.656 511.906 558.75 514.781C557.75 517.969 556.625 520.937 555.375 523.687C554.125 526.437 552.672 528.859 551.016 530.953C549.359 533.016 547.453 534.625 545.297 535.781C543.109 536.937 540.578 537.516 537.703 537.516C534.891 537.516 532.328 536.922 530.016 535.734C527.703 534.516 525.719 532.797 524.062 530.578C522.375 528.359 521.078 525.75 520.172 522.75C519.266 519.719 518.812 516.375 518.812 512.719C518.812 507.656 519.734 503.281 521.578 499.594C523.422 495.875 525.922 493 529.078 490.969C532.234 488.937 535.781 487.922 539.719 487.922L539.719 500.766C537.594 500.766 535.719 501.219 534.094 502.125C532.469 503 531.187 504.344 530.25 506.156C529.312 507.937 528.844 510.187 528.844 512.906C528.844 515.531 529.234 517.719 530.016 519.469C530.797 521.187 531.859 522.484 533.203 523.359C534.547 524.203 536.047 524.625 537.703 524.625C538.953 524.625 540.078 524.328 541.078 523.734C542.047 523.141 542.969 522.25 543.844 521.062C544.687 519.875 545.484 518.406 546.234 516.656C546.953 514.875 547.672 512.812 548.391 510.469C549.516 506.719 550.766 503.437 552.141 500.625C553.516 497.781 555.078 495.422 556.828 493.547C558.578 491.641 560.547 490.219 562.734 489.281C564.922 488.312 567.406 487.828 570.187 487.828C573.125 487.828 575.75 488.406 578.062 489.562C580.375 490.719 582.344 492.375 583.969 494.531C585.594 496.687 586.828 499.281 587.672 502.312C588.516 505.312 588.937 508.672 588.937 512.391C588.937 515.703 588.5 518.984 587.625 522.234C586.719 525.453 585.375 528.375 583.594 531C581.781 533.625 579.5 535.719 576.75 537.281C573.969 538.844 570.719 539.625 567 539.625L567 526.687C569.156 526.687 571 526.344 572.531 525.656C574.031 524.937 575.266 523.937 576.234 522.656C577.172 521.344 577.859 519.812 578.297 518.062C578.734 516.312 578.953 514.422 578.953 512.391C578.953 509.766 578.594 507.609 577.875 505.922C577.125 504.203 576.094 502.922 574.781 502.078C573.469 501.203 571.969 500.766 570.281 500.766ZM530.109 450.75L588 470.203L588 483.844L519.75 458.344L519.75 449.625L530.109 450.75ZM588 434.484L530.109 454.031L519.75 455.203L519.75 446.437L588 420.797L588 434.484ZM562.641 435.375L572.812 435.375L572.812 471.984L562.641 471.984L562.641 435.375ZM574.641 393.609L519.75 376.594L519.75 362.297L588 386.391L588 395.906L574.641 393.609ZM519.75 409.312L574.641 392.391L588 389.953L588 399.562L519.75 423.562L519.75 409.312ZM577.875 310.031L588 310.031L588 346.312L577.875 346.312L577.875 310.031ZM519.75 342.375L588 342.375L588 355.266L519.75 355.266L519.75 342.375ZM547.922 314.766L557.812 314.766L557.812 346.312L547.922 346.312L547.922 314.766ZM519.75 310.172L529.922 310.172L529.922 346.312L519.75 346.312L519.75 310.172Z" fill="white"/>
<path d="M731.281 569.766C729.969 569.766 728.797 569.969 727.766 570.375C726.703 570.75 725.75 571.453 724.906 572.484C724.031 573.484 723.187 574.906 722.375 576.75C721.531 578.562 720.656 580.906 719.75 583.781C718.75 586.969 717.625 589.937 716.375 592.687C715.125 595.437 713.672 597.859 712.016 599.953C710.359 602.016 708.453 603.625 706.297 604.781C704.109 605.937 701.578 606.516 698.703 606.516C695.891 606.516 693.328 605.922 691.016 604.734C688.703 603.516 686.719 601.797 685.062 599.578C683.375 597.359 682.078 594.75 681.172 591.75C680.266 588.719 679.812 585.375 679.812 581.719C679.812 576.656 680.734 572.281 682.578 568.594C684.422 564.875 686.922 562 690.078 559.969C693.234 557.937 696.781 556.922 700.719 556.922L700.719 569.766C698.594 569.766 696.719 570.219 695.094 571.125C693.469 572 692.187 573.344 691.25 575.156C690.312 576.937 689.844 579.187 689.844 581.906C689.844 584.531 690.234 586.719 691.016 588.469C691.797 590.187 692.859 591.484 694.203 592.359C695.547 593.203 697.047 593.625 698.703 593.625C699.953 593.625 701.078 593.328 702.078 592.734C703.047 592.141 703.969 591.25 704.844 590.062C705.687 588.875 706.484 587.406 707.234 585.656C707.953 583.875 708.672 581.812 709.391 579.469C710.516 575.719 711.766 572.437 713.141 569.625C714.516 566.781 716.078 564.422 717.828 562.547C719.578 560.641 721.547 559.219 723.734 558.281C725.922 557.312 728.406 556.828 731.187 556.828C734.125 556.828 736.75 557.406 739.062 558.562C741.375 559.719 743.344 561.375 744.969 563.531C746.594 565.687 747.828 568.281 748.672 571.312C749.516 574.312 749.937 577.672 749.937 581.391C749.937 584.703 749.5 587.984 748.625 591.234C747.719 594.453 746.375 597.375 744.594 600C742.781 602.625 740.5 604.719 737.75 606.281C734.969 607.844 731.719 608.625 728 608.625L728 595.687C730.156 595.687 732 595.344 733.531 594.656C735.031 593.937 736.266 592.937 737.234 591.656C738.172 590.344 738.859 588.812 739.297 587.062C739.734 585.312 739.953 583.422 739.953 581.391C739.953 578.766 739.594 576.609 738.875 574.922C738.125 573.203 737.094 571.922 735.781 571.078C734.469 570.203 732.969 569.766 731.281 569.766ZM708.922 501.609L719.047 501.609L719.047 537.516L708.922 537.516L708.922 501.609ZM680.75 534L749 534L749 546.891L680.75 546.891L680.75 534ZM680.75 492.047L749 492.047L749 504.937L680.75 504.937L680.75 492.047ZM691.109 450.937L749 470.391L749 484.031L680.75 458.531L680.75 449.812L691.109 450.937ZM749 434.672L691.109 454.219L680.75 455.391L680.75 446.625L749 420.984L749 434.672ZM723.641 435.562L733.812 435.562L733.812 472.172L723.641 472.172L723.641 435.562ZM680.75 413.953L680.75 389.156C680.75 383.969 681.531 379.516 683.094 375.797C684.656 372.078 686.969 369.219 690.031 367.219C693.094 365.219 696.859 364.219 701.328 364.219C704.859 364.219 707.922 364.844 710.516 366.094C713.109 367.344 715.281 369.109 717.031 371.391C718.781 373.641 720.156 376.297 721.156 379.359L723.219 383.391L723.219 405.281L713.047 405.375L713.047 389.016C713.047 386.359 712.578 384.156 711.641 382.406C710.703 380.656 709.406 379.344 707.75 378.469C706.094 377.562 704.203 377.109 702.078 377.109C699.797 377.109 697.828 377.547 696.172 378.422C694.484 379.297 693.187 380.625 692.281 382.406C691.375 384.187 690.922 386.437 690.922 389.156L690.922 401.062L749 401.062L749 413.953L680.75 413.953ZM749 375.422L718.437 391.219L718.391 377.578L748.344 361.594L749 361.594L749 375.422ZM738.875 307.687L749 307.687L749 343.969L738.875 343.969L738.875 307.687ZM680.75 340.031L749 340.031L749 352.922L680.75 352.922L680.75 340.031ZM708.922 312.422L718.812 312.422L718.812 343.969L708.922 343.969L708.922 312.422ZM680.75 307.828L690.922 307.828L690.922 343.969L680.75 343.969L680.75 307.828Z" fill="white"/>
<path d="M892.875 527.172L903 527.172L903 561.484L892.875 561.484L892.875 527.172ZM834.75 557.594L903 557.594L903 570.484L834.75 570.484L834.75 557.594ZM892.875 473.312L903 473.312L903 509.594L892.875 509.594L892.875 473.312ZM834.75 505.656L903 505.656L903 518.547L834.75 518.547L834.75 505.656ZM862.922 478.047L872.812 478.047L872.812 509.594L862.922 509.594L862.922 478.047ZM834.75 473.453L844.922 473.453L844.922 509.594L834.75 509.594L834.75 473.453ZM845.109 437.219L903 456.672L903 470.312L834.75 444.812L834.75 436.094L845.109 437.219ZM903 420.953L845.109 440.5L834.75 441.672L834.75 432.906L903 407.266L903 420.953ZM877.641 421.844L887.812 421.844L887.812 458.453L877.641 458.453L877.641 421.844ZM834.75 400.234L834.75 375.437C834.75 370.25 835.531 365.797 837.094 362.078C838.656 358.359 840.969 355.5 844.031 353.5C847.094 351.5 850.859 350.5 855.328 350.5C858.859 350.5 861.922 351.125 864.516 352.375C867.109 353.625 869.281 355.391 871.031 357.672C872.781 359.922 874.156 362.578 875.156 365.641L877.219 369.672L877.219 391.562L867.047 391.656L867.047 375.297C867.047 372.641 866.578 370.437 865.641 368.687C864.703 366.937 863.406 365.625 861.75 364.75C860.094 363.844 858.203 363.391 856.078 363.391C853.797 363.391 851.828 363.828 850.172 364.703C848.484 365.578 847.187 366.906 846.281 368.687C845.375 370.469 844.922 372.719 844.922 375.437L844.922 387.344L903 387.344L903 400.234L834.75 400.234ZM903 361.703L872.437 377.5L872.391 363.859L902.344 347.875L903 347.875L903 361.703ZM834.75 284.359L903 284.359L903 297.297L855.656 326.312L903 326.312L903 339.203L834.75 339.203L834.75 326.312L882.141 297.203L834.75 297.203L834.75 284.359Z" fill="white"/>
</svg>
