<svg width="308" height="86" viewBox="0 0 308 86" fill="none" xmlns="http://www.w3.org/2000/svg">
<path d="M29.3438 66.5938H40.2812C40.1354 69.7604 39.2812 72.5521 37.7188 74.9688C36.1562 77.3854 33.9896 79.2708 31.2188 80.625C28.4688 81.9583 25.2188 82.625 21.4688 82.625C18.4271 82.625 15.7083 82.1146 13.3125 81.0938C10.9375 80.0729 8.91667 78.6042 7.25 76.6875C5.60417 74.7708 4.34375 72.4479 3.46875 69.7188C2.61458 66.9896 2.1875 63.9167 2.1875 60.5V58.0312C2.1875 54.6146 2.63542 51.5417 3.53125 48.8125C4.44792 46.0625 5.73958 43.7292 7.40625 41.8125C9.09375 39.875 11.1146 38.3958 13.4688 37.375C15.8229 36.3542 18.4375 35.8438 21.3125 35.8438C25.2708 35.8438 28.6146 36.5521 31.3438 37.9688C34.0729 39.3854 36.1875 41.3333 37.6875 43.8125C39.1875 46.2708 40.0729 49.0729 40.3438 52.2188H29.4062C29.3646 50.5104 29.0729 49.0833 28.5312 47.9375C27.9896 46.7708 27.1354 45.8958 25.9688 45.3125C24.8021 44.7292 23.25 44.4375 21.3125 44.4375C19.9583 44.4375 18.7812 44.6875 17.7812 45.1875C16.7812 45.6875 15.9479 46.4792 15.2812 47.5625C14.6146 48.6458 14.1146 50.0521 13.7812 51.7812C13.4688 53.4896 13.3125 55.5521 13.3125 57.9688V60.5C13.3125 62.9167 13.4583 64.9792 13.75 66.6875C14.0417 68.3958 14.5104 69.7917 15.1562 70.875C15.8021 71.9583 16.6354 72.7604 17.6562 73.2812C18.6979 73.7812 19.9688 74.0312 21.4688 74.0312C23.1354 74.0312 24.5417 73.7708 25.6875 73.25C26.8333 72.7083 27.7188 71.8958 28.3438 70.8125C28.9688 69.7083 29.3021 68.3021 29.3438 66.5938ZM83.9688 58.3438V60.1875C83.9688 63.6667 83.4792 66.7917 82.5 69.5625C81.5417 72.3125 80.1771 74.6667 78.4062 76.625C76.6354 78.5625 74.5417 80.0521 72.125 81.0938C69.7083 82.1146 67.0417 82.625 64.125 82.625C61.1875 82.625 58.5 82.1146 56.0625 81.0938C53.6458 80.0521 51.5417 78.5625 49.75 76.625C47.9792 74.6667 46.6042 72.3125 45.625 69.5625C44.6667 66.7917 44.1875 63.6667 44.1875 60.1875V58.3438C44.1875 54.8646 44.6667 51.7396 45.625 48.9688C46.6042 46.1979 47.9688 43.8438 49.7188 41.9062C51.4896 39.9479 53.5833 38.4583 56 37.4375C58.4375 36.3958 61.125 35.875 64.0625 35.875C66.9792 35.875 69.6458 36.3958 72.0625 37.4375C74.5 38.4583 76.6042 39.9479 78.375 41.9062C80.1458 43.8438 81.5208 46.1979 82.5 48.9688C83.4792 51.7396 83.9688 54.8646 83.9688 58.3438ZM72.8438 60.1875V58.2812C72.8438 56.0312 72.6458 54.0521 72.25 52.3438C71.875 50.6146 71.3125 49.1667 70.5625 48C69.8125 46.8333 68.8854 45.9583 67.7812 45.375C66.6979 44.7708 65.4583 44.4688 64.0625 44.4688C62.6042 44.4688 61.3333 44.7708 60.25 45.375C59.1667 45.9583 58.2604 46.8333 57.5312 48C56.8021 49.1667 56.25 50.6146 55.875 52.3438C55.5208 54.0521 55.3438 56.0312 55.3438 58.2812V60.1875C55.3438 62.4167 55.5208 64.3958 55.875 66.125C56.25 67.8333 56.8021 69.2812 57.5312 70.4688C58.2812 71.6562 59.1979 72.5521 60.2812 73.1562C61.3854 73.7604 62.6667 74.0625 64.125 74.0625C65.5208 74.0625 66.7604 73.7604 67.8438 73.1562C68.9271 72.5521 69.8333 71.6562 70.5625 70.4688C71.3125 69.2812 71.875 67.8333 72.25 66.125C72.6458 64.3958 72.8438 62.4167 72.8438 60.1875ZM127.656 36.5V82H116.719L100.625 53.6875V82H89.6562V36.5H100.625L116.719 64.8125V36.5H127.656ZM160.469 66.5938H171.406C171.26 69.7604 170.406 72.5521 168.844 74.9688C167.281 77.3854 165.115 79.2708 162.344 80.625C159.594 81.9583 156.344 82.625 152.594 82.625C149.552 82.625 146.833 82.1146 144.438 81.0938C142.062 80.0729 140.042 78.6042 138.375 76.6875C136.729 74.7708 135.469 72.4479 134.594 69.7188C133.74 66.9896 133.312 63.9167 133.312 60.5V58.0312C133.312 54.6146 133.76 51.5417 134.656 48.8125C135.573 46.0625 136.865 43.7292 138.531 41.8125C140.219 39.875 142.24 38.3958 144.594 37.375C146.948 36.3542 149.562 35.8438 152.438 35.8438C156.396 35.8438 159.74 36.5521 162.469 37.9688C165.198 39.3854 167.312 41.3333 168.812 43.8125C170.312 46.2708 171.198 49.0729 171.469 52.2188H160.531C160.49 50.5104 160.198 49.0833 159.656 47.9375C159.115 46.7708 158.26 45.8958 157.094 45.3125C155.927 44.7292 154.375 44.4375 152.438 44.4375C151.083 44.4375 149.906 44.6875 148.906 45.1875C147.906 45.6875 147.073 46.4792 146.406 47.5625C145.74 48.6458 145.24 50.0521 144.906 51.7812C144.594 53.4896 144.438 55.5521 144.438 57.9688V60.5C144.438 62.9167 144.583 64.9792 144.875 66.6875C145.167 68.3958 145.635 69.7917 146.281 70.875C146.927 71.9583 147.76 72.7604 148.781 73.2812C149.823 73.7812 151.094 74.0312 152.594 74.0312C154.26 74.0312 155.667 73.7708 156.812 73.25C157.958 72.7083 158.844 71.8958 159.469 70.8125C160.094 69.7083 160.427 68.3021 160.469 66.5938ZM194.75 66.5625H183.438V58.0938H194.75C196.292 58.0938 197.542 57.8333 198.5 57.3125C199.458 56.7917 200.156 56.0729 200.594 55.1562C201.052 54.2188 201.281 53.1667 201.281 52C201.281 50.75 201.052 49.5938 200.594 48.5312C200.156 47.4688 199.458 46.6146 198.5 45.9688C197.542 45.3021 196.292 44.9688 194.75 44.9688H187.562V82H176.594V36.5H194.75C198.396 36.5 201.531 37.1667 204.156 38.5C206.802 39.8333 208.833 41.6667 210.25 44C211.667 46.3125 212.375 48.9583 212.375 51.9375C212.375 54.875 211.667 57.4375 210.25 59.625C208.833 61.8125 206.802 63.5208 204.156 64.75C201.531 65.9583 198.396 66.5625 194.75 66.5625ZM240.312 36.5V82H229.344V36.5H240.312ZM254 36.5V44.9688H215.969V36.5H254Z" fill="#1D293B"/>
<path d="M293.001 59.874L265.095 50.4189V36.374L305.485 52.8975V63.4082L293.001 59.874ZM265.095 67.585L293.001 57.9004L305.485 54.6416V65.1064L265.095 81.6299V67.585Z" fill="#1D293B"/>
</svg>
